<?xml version="1.0" encoding="UTF-8"?>
<svg xmlns="http://www.w3.org/2000/svg" viewBox="0 0 400 400">
  <defs>
    <linearGradient id="bg" x1="0%" y1="0%" x2="100%" y2="100%">
      <stop offset="0%" stop-color="#fafbfa"/>
      <stop offset="100%" stop-color="#eef2ee"/>
    </linearGradient>
    <linearGradient id="prod" x1="0%" y1="0%" x2="100%" y2="100%">
      <stop offset="0%" stop-color="#c2185b"/>
      <stop offset="100%" stop-color="#881140"/>
    </linearGradient>
    <linearGradient id="prodDark" x1="0%" y1="0%" x2="0%" y2="100%">
      <stop offset="0%" stop-color="#a5144d"/>
      <stop offset="100%" stop-color="#6b0d32"/>
    </linearGradient>
    <filter id="shadow" x="-20%" y="-10%" width="140%" height="130%">
      <feGaussianBlur in="SourceAlpha" stdDeviation="6"/>
      <feOffset dx="0" dy="8"/>
      <feComponentTransfer><feFuncA type="linear" slope="0.25"/></feComponentTransfer>
      <feMerge><feMergeNode/><feMergeNode in="SourceGraphic"/></feMerge>
    </filter>
  </defs>
  <rect width="400" height="400" fill="url(#bg)"/>
  <ellipse cx="200" cy="370" rx="100" ry="10" fill="#000" opacity="0.12"/>
  <g filter="url(#shadow)">
    <ellipse cx="200" cy="60" rx="24" ry="8" fill="#4e0a24"/>
    <rect x="176" y="60" width="48" height="22" rx="3" fill="#6b0d32"/>
    <ellipse cx="200" cy="82" rx="24" ry="6" fill="#610c2e"/>
    <path d="M 175 90 L 225 90 L 230 100 L 270 130 Q 280 140, 280 155 L 280 320 Q 280 340, 260 340 L 140 340 Q 120 340, 120 320 L 120 155 Q 120 140, 130 130 L 170 100 Z" fill="url(#prod)"/>
    <rect x="145" y="170" width="110" height="140" fill="#fff" opacity="0.96"/>
    <text x="200" y="220" text-anchor="middle" fill="#c2185b" font-family="Georgia,serif" font-size="48" font-weight="900">25TH</text>
    <line x1="160" y1="240" x2="240" y2="240" stroke="#c2185b" stroke-width="1"/>
    <text x="200" y="265" text-anchor="middle" fill="#881140" font-family="Arial,sans-serif" font-size="11" letter-spacing="3">EDITION WOMEN</text>
    <text x="200" y="290" text-anchor="middle" fill="#740e37" font-family="Arial,sans-serif" font-size="9" letter-spacing="2">FOREVER</text>
  </g>
</svg>