<?xml version="1.0" encoding="UTF-8"?>
<svg xmlns="http://www.w3.org/2000/svg" viewBox="0 0 400 400">
  <defs>
    <linearGradient id="bg" x1="0%" y1="0%" x2="100%" y2="100%">
      <stop offset="0%" stop-color="#fafbfa"/>
      <stop offset="100%" stop-color="#eef2ee"/>
    </linearGradient>
    <linearGradient id="prod" x1="0%" y1="0%" x2="100%" y2="100%">
      <stop offset="0%" stop-color="#8b1a3a"/>
      <stop offset="100%" stop-color="#611229"/>
    </linearGradient>
    <linearGradient id="prodDark" x1="0%" y1="0%" x2="0%" y2="100%">
      <stop offset="0%" stop-color="#761631"/>
      <stop offset="100%" stop-color="#4c0e20"/>
    </linearGradient>
    <filter id="shadow" x="-20%" y="-10%" width="140%" height="130%">
      <feGaussianBlur in="SourceAlpha" stdDeviation="6"/>
      <feOffset dx="0" dy="8"/>
      <feComponentTransfer><feFuncA type="linear" slope="0.25"/></feComponentTransfer>
      <feMerge><feMergeNode/><feMergeNode in="SourceGraphic"/></feMerge>
    </filter>
  </defs>
  <rect width="400" height="400" fill="url(#bg)"/>
  <ellipse cx="200" cy="370" rx="100" ry="10" fill="#000" opacity="0.12"/>
  <g filter="url(#shadow)">
    <rect x="155" y="60" width="90" height="22" rx="4" fill="#531023"/>
    <rect x="159" y="80" width="82" height="14" fill="#3f0c1a"/>
    <path d="M 145 100 L 145 320 Q 145 340, 165 340 L 235 340 Q 255 340, 255 320 L 255 100 Z" fill="url(#prod)"/>
    <ellipse cx="200" cy="100" rx="55" ry="8" fill="#6f152e"/>
    <rect x="155" y="160" width="90" height="120" fill="#fff" opacity="0.95"/>
    <text x="200" y="195" text-anchor="middle" fill="#460d1d" font-family="Arial,sans-serif" font-size="14" font-weight="900">FOREVER</text>
    <line x1="165" y1="205" x2="235" y2="205" stroke="#d4af37" stroke-width="1"/>
    <text x="200" y="232" text-anchor="middle" fill="#8b1a3a" font-family="Arial,sans-serif" font-size="14" font-weight="900">POMESTEEN</text>
    <text x="200" y="252" text-anchor="middle" fill="#611229" font-family="Arial,sans-serif" font-size="9">POWER</text>
    <line x1="165" y1="265" x2="235" y2="265" stroke="#d4af37" stroke-width="1" opacity="0.5"/>
  </g>
</svg>