<?xml version="1.0" encoding="UTF-8"?>
<svg xmlns="http://www.w3.org/2000/svg" viewBox="0 0 400 400">
  <defs>
    <linearGradient id="bg" x1="0%" y1="0%" x2="100%" y2="100%">
      <stop offset="0%" stop-color="#fafbfa"/>
      <stop offset="100%" stop-color="#eef2ee"/>
    </linearGradient>
    <linearGradient id="prod" x1="0%" y1="0%" x2="100%" y2="100%">
      <stop offset="0%" stop-color="#f0e0d6"/>
      <stop offset="100%" stop-color="#a89d96"/>
    </linearGradient>
    <linearGradient id="prodDark" x1="0%" y1="0%" x2="0%" y2="100%">
      <stop offset="0%" stop-color="#ccbeb6"/>
      <stop offset="100%" stop-color="#847b76"/>
    </linearGradient>
    <filter id="shadow" x="-20%" y="-10%" width="140%" height="130%">
      <feGaussianBlur in="SourceAlpha" stdDeviation="6"/>
      <feOffset dx="0" dy="8"/>
      <feComponentTransfer><feFuncA type="linear" slope="0.25"/></feComponentTransfer>
      <feMerge><feMergeNode/><feMergeNode in="SourceGraphic"/></feMerge>
    </filter>
  </defs>
  <rect width="400" height="400" fill="url(#bg)"/>
  <ellipse cx="200" cy="370" rx="100" ry="10" fill="#000" opacity="0.12"/>
  <g filter="url(#shadow)">
    <rect x="120" y="100" width="160" height="22" rx="3" fill="#847b76"/>
    <rect x="125" y="118" width="150" height="6" fill="#605a56"/>
    <path d="M 115 124 L 115 320 Q 115 340, 135 340 L 265 340 Q 285 340, 285 320 L 285 124 Z" fill="url(#prod)"/>
    <ellipse cx="200" cy="124" rx="85" ry="8" fill="#a89d96" opacity="0.5"/>
    <rect x="135" y="170" width="130" height="120" fill="#fff" opacity="0.95"/>
    <text x="200" y="200" text-anchor="middle" fill="#78706b" font-family="Arial,sans-serif" font-size="13" font-weight="700" letter-spacing="2">FOREVER</text>
    <line x1="155" y1="212" x2="245" y2="212" stroke="#a87c1f" stroke-width="1"/>
    <text x="200" y="240" text-anchor="middle" fill="#f0e0d6" font-family="Arial Black,sans-serif" font-size="18" font-weight="900">SONYA</text>
    <text x="200" y="262" text-anchor="middle" fill="#a89d96" font-family="Arial,sans-serif" font-size="11">Balancing Cream</text>
  </g>
</svg>