<?xml version="1.0" encoding="UTF-8"?>
<svg xmlns="http://www.w3.org/2000/svg" viewBox="0 0 400 400">
  <defs>
    <linearGradient id="bg" x1="0%" y1="0%" x2="100%" y2="100%">
      <stop offset="0%" stop-color="#fafbfa"/>
      <stop offset="100%" stop-color="#eef2ee"/>
    </linearGradient>
    <linearGradient id="prod" x1="0%" y1="0%" x2="100%" y2="100%">
      <stop offset="0%" stop-color="#e8b4b8"/>
      <stop offset="100%" stop-color="#a27e81"/>
    </linearGradient>
    <linearGradient id="prodDark" x1="0%" y1="0%" x2="0%" y2="100%">
      <stop offset="0%" stop-color="#c5999c"/>
      <stop offset="100%" stop-color="#806365"/>
    </linearGradient>
    <filter id="shadow" x="-20%" y="-10%" width="140%" height="130%">
      <feGaussianBlur in="SourceAlpha" stdDeviation="6"/>
      <feOffset dx="0" dy="8"/>
      <feComponentTransfer><feFuncA type="linear" slope="0.25"/></feComponentTransfer>
      <feMerge><feMergeNode/><feMergeNode in="SourceGraphic"/></feMerge>
    </filter>
  </defs>
  <rect width="400" height="400" fill="url(#bg)"/>
  <ellipse cx="200" cy="370" rx="100" ry="10" fill="#000" opacity="0.12"/>
  <g filter="url(#shadow)">
    <rect x="190" y="50" width="20" height="30" fill="#745a5c"/>
    <rect x="180" y="78" width="40" height="14" rx="3" fill="#8b6c6e"/>
    <rect x="155" y="92" width="90" height="20" fill="#a27e81"/>
    <path d="M 150 110 L 250 110 L 250 330 Q 250 345, 235 345 L 165 345 Q 150 345, 150 330 Z" fill="url(#prod)"/>
    <rect x="162" y="155" width="76" height="160" fill="#fff" opacity="0.95"/>
    <text x="200" y="185" text-anchor="middle" fill="#745a5c" font-family="Arial,sans-serif" font-size="11" font-weight="700" letter-spacing="2">FOREVER</text>
    <line x1="172" y1="195" x2="228" y2="195" stroke="#fff" stroke-width="1"/>
    <text x="200" y="230" text-anchor="middle" fill="#e8b4b8" font-family="Arial Black,sans-serif" font-size="15" font-weight="900">SONYA</text>
    <text x="200" y="252" text-anchor="middle" fill="#a27e81" font-family="Arial,sans-serif" font-size="10">Cleanser</text>
    <line x1="172" y1="270" x2="228" y2="270" stroke="#fff" stroke-width="1" opacity="0.4"/>
  </g>
</svg>