<?xml version="1.0" encoding="UTF-8"?>
<svg xmlns="http://www.w3.org/2000/svg" viewBox="0 0 400 400">
  <defs>
    <linearGradient id="bg" x1="0%" y1="0%" x2="100%" y2="100%">
      <stop offset="0%" stop-color="#fafbfa"/>
      <stop offset="100%" stop-color="#eef2ee"/>
    </linearGradient>
    <linearGradient id="prod" x1="0%" y1="0%" x2="100%" y2="100%">
      <stop offset="0%" stop-color="#a8d5ba"/>
      <stop offset="100%" stop-color="#769582"/>
    </linearGradient>
    <linearGradient id="prodDark" x1="0%" y1="0%" x2="0%" y2="100%">
      <stop offset="0%" stop-color="#8fb59e"/>
      <stop offset="100%" stop-color="#5c7566"/>
    </linearGradient>
    <filter id="shadow" x="-20%" y="-10%" width="140%" height="130%">
      <feGaussianBlur in="SourceAlpha" stdDeviation="6"/>
      <feOffset dx="0" dy="8"/>
      <feComponentTransfer><feFuncA type="linear" slope="0.25"/></feComponentTransfer>
      <feMerge><feMergeNode/><feMergeNode in="SourceGraphic"/></feMerge>
    </filter>
  </defs>
  <rect width="400" height="400" fill="url(#bg)"/>
  <ellipse cx="200" cy="370" rx="100" ry="10" fill="#000" opacity="0.12"/>
  <g filter="url(#shadow)">
    <rect x="186" y="55" width="28" height="12" fill="#43554a"/>
    <path d="M 195 67 L 205 67 L 207 80 L 193 80 Z" fill="#546b5d"/>
    <rect x="180" y="80" width="40" height="14" rx="2" fill="#658070"/>
    <path d="M 150 95 L 250 95 L 250 335 Q 250 345, 240 345 L 160 345 Q 150 345, 150 335 Z" fill="url(#prod)"/>
    <rect x="160" y="150" width="80" height="160" fill="#fff" opacity="0.95"/>
    <text x="200" y="180" text-anchor="middle" fill="#546b5d" font-family="Arial,sans-serif" font-size="11" font-weight="700" letter-spacing="2">FOREVER</text>
    <line x1="170" y1="192" x2="230" y2="192" stroke="#fff" stroke-width="1"/>
    <text x="200" y="225" text-anchor="middle" fill="#a8d5ba" font-family="Arial Black,sans-serif" font-size="15" font-weight="900">SONYA</text>
    <text x="200" y="248" text-anchor="middle" fill="#769582" font-family="Arial,sans-serif" font-size="10">Toner</text>
  </g>
</svg>